<?xml version="1.0" standalone="no"?>
<!DOCTYPE svg PUBLIC "-//W3C//DTD SVG 20010904//EN"
 "http://www.w3.org/TR/2001/REC-SVG-20010904/DTD/svg10.dtd">
<svg version="1.0" xmlns="http://www.w3.org/2000/svg"
 width="500.000000pt" height="500.000000pt" viewBox="0 0 500.000000 500.000000"
 preserveAspectRatio="xMidYMid meet">
<metadata>
Created by potrace 1.14, written by Peter Selinger 2001-2017
</metadata>
<g transform="translate(0.000000,500.000000) scale(0.100000,-0.100000)"
fill="#000000" stroke="none">
<path d="M0 4531 c0 -333 3 -472 11 -477 8 -4 7 -9 -2 -15 -9 -6 2 -9 31 -9
31 0 40 3 31 9 -12 8 -12 12 -2 25 20 24 277 23 364 -1 34 -9 64 -20 67 -24 3
-3 50 -9 106 -12 57 -4 114 -13 131 -22 16 -8 66 -17 109 -19 76 -3 134 -20
134 -38 0 -4 26 -8 59 -8 88 0 121 -9 121 -32 0 -11 -9 -22 -20 -25 -25 -7
-25 -8 4 -46 18 -23 22 -37 16 -47 -7 -11 -10 -12 -10 -2 0 7 -5 10 -11 6 -6
-3 -9 -14 -6 -24 3 -12 -2 -20 -15 -24 -14 -3 -19 -10 -14 -21 3 -9 2 -13 -4
-10 -6 3 -10 1 -10 -5 0 -7 -7 -9 -16 -6 -11 4 -15 2 -11 -8 4 -10 -4 -18 -23
-24 -16 -6 -37 -19 -47 -29 -28 -28 -57 -38 -49 -18 3 10 2 13 -5 10 -5 -4
-20 -8 -33 -9 -12 -2 -50 -22 -84 -45 -52 -35 -61 -45 -57 -64 9 -36 -52 -89
-282 -244 -114 -77 -239 -162 -277 -188 -39 -27 -66 -44 -62 -37 7 11 -14 42
-29 42 -4 0 -31 -15 -61 -32 l-54 -33 0 -57 c0 -32 2 -58 5 -58 6 0 133 84
385 254 150 101 366 230 410 244 34 11 35 11 11 -6 -13 -9 -56 -42 -96 -74
-40 -32 -77 -58 -83 -58 -6 0 -12 -4 -14 -8 -1 -4 -92 -64 -201 -132 -109 -69
-242 -153 -295 -188 -53 -35 -103 -67 -111 -71 -7 -5 -12 -14 -10 -20 4 -11
327 186 370 225 8 8 19 14 23 14 4 0 79 47 166 105 88 58 162 105 166 105 3 0
31 18 63 40 31 22 64 40 73 40 8 0 27 9 42 21 14 11 35 21 47 22 11 1 25 9 30
19 5 10 16 18 24 18 8 0 15 7 15 15 0 13 6 17 26 14 4 0 11 5 15 13 7 11 9 11
9 0 0 -8 10 -28 22 -44 21 -30 21 -31 3 -44 -10 -8 -23 -14 -28 -14 -4 0 -5
-4 -2 -10 3 -5 -3 -19 -14 -31 -29 -31 -35 -89 -17 -153 17 -57 14 -100 -11
-149 -8 -16 -12 -31 -9 -34 3 -3 -1 -21 -9 -40 -13 -32 -13 -34 0 -23 14 11
15 6 15 -41 -1 -30 -1 -72 0 -94 1 -22 -1 -85 -6 -139 -5 -74 -4 -97 4 -92 7
4 12 1 12 -7 0 -18 -57 -69 -189 -172 -57 -44 -126 -97 -153 -118 -50 -39
-107 -119 -108 -150 0 -26 50 -66 83 -67 15 0 30 -7 33 -15 4 -8 12 -15 19
-15 7 0 32 -9 56 -20 24 -11 61 -20 82 -20 21 0 51 -7 66 -15 16 -8 31 -11 35
-8 3 4 6 2 6 -3 0 -6 16 -8 35 -6 30 4 35 1 40 -21 4 -16 2 -31 -6 -40 -12
-12 -18 -10 -43 16 -17 16 -32 25 -34 19 -2 -8 -11 -8 -30 0 -15 6 -38 12 -52
13 -14 1 -38 6 -55 10 -23 5 -26 4 -15 -4 12 -9 9 -11 -14 -11 -17 0 -40 10
-54 23 -20 17 -24 18 -19 5 8 -23 -1 -23 -38 2 -34 23 -67 28 -47 8 22 -22 12
-37 -31 -48 -78 -20 -87 -28 -32 -31 42 -1 45 -2 20 -8 l-30 -7 34 -7 c33 -7
34 -8 16 -27 -10 -11 -14 -20 -9 -20 5 0 0 -7 -10 -15 -18 -14 -18 -15 8 -25
15 -5 31 -10 36 -10 5 0 8 -18 7 -41 -1 -33 4 -44 23 -60 14 -10 34 -19 46
-19 26 0 125 -92 126 -116 0 -11 -6 -34 -13 -53 -10 -25 -11 -35 -3 -38 9 -3
9 -15 1 -44 -6 -24 -13 -37 -19 -31 -5 5 -4 20 2 37 14 37 6 43 -15 11 l-17
-26 -68 66 c-41 40 -66 72 -63 80 3 8 0 14 -6 14 -6 0 -11 7 -11 15 0 8 -7 15
-15 15 -8 0 -15 5 -15 10 0 6 5 10 11 10 6 0 3 7 -5 16 -9 8 -16 29 -16 45 0
27 -3 29 -33 27 -37 -2 -57 7 -57 26 0 8 -11 21 -25 30 -16 10 -25 26 -25 41
0 27 -6 30 -29 16 -8 -5 -11 -16 -7 -26 4 -11 -6 -31 -29 -58 -19 -22 -35 -46
-35 -53 0 -13 -36 -29 -87 -39 -18 -4 -36 -11 -40 -17 -4 -7 0 -9 10 -5 10 3
17 2 17 -3 0 -6 7 -10 15 -10 13 0 21 -25 16 -52 0 -5 4 -8 9 -8 6 0 10 7 10
15 0 8 5 15 10 15 6 0 10 -7 10 -15 0 -9 10 -15 23 -16 20 -1 19 -2 -8 -14
-16 -8 -25 -15 -20 -16 15 -2 47 -5 73 -7 13 -1 22 -9 22 -18 0 -9 14 -29 30
-44 17 -16 37 -44 45 -64 9 -20 22 -36 30 -36 13 0 20 -19 16 -43 -1 -5 8 -11
19 -14 14 -4 20 -14 20 -33 0 -23 4 -27 19 -23 24 6 31 -6 20 -34 -6 -18 -16
-23 -44 -23 -19 0 -35 -5 -35 -10 0 -6 -13 -9 -28 -8 -15 1 -33 -1 -39 -5 -7
-5 -26 -1 -42 8 -37 19 -41 19 -41 0 0 -15 10 -19 43 -16 11 2 17 -5 17 -18 0
-33 62 -29 87 5 15 21 28 26 71 28 46 2 52 0 52 -19 0 -16 2 -17 10 -5 15 23
24 3 11 -26 -12 -27 -6 -49 10 -39 5 4 9 -1 9 -10 0 -17 -30 -17 -42 0 -4 6
-8 2 -8 -7 0 -10 -7 -18 -15 -18 -8 0 -15 -7 -15 -15 0 -8 -8 -19 -18 -24 -12
-6 -17 -20 -16 -45 1 -20 -2 -33 -7 -30 -5 3 -9 1 -9 -4 0 -5 -20 -20 -45 -33
l-45 -24 -39 45 c-79 93 -112 136 -129 172 -11 21 -22 35 -25 31 -4 -3 -7 1
-7 10 0 9 -7 17 -16 17 -8 0 -13 4 -9 9 3 5 1 12 -4 16 -7 4 -7 15 0 32 5 14
7 28 4 31 -3 3 -5 0 -5 -8 0 -10 -3 -10 -15 0 -8 6 -19 9 -25 5 -5 -3 -10 -2
-10 3 0 6 7 12 15 16 9 3 15 19 15 38 l1 33 15 -27 c8 -16 22 -28 31 -28 9 0
27 -10 40 -22 23 -22 33 -12 11 10 -10 10 -10 17 0 32 10 17 10 21 -3 25 -8 3
-23 8 -32 12 -10 4 -25 8 -33 8 -8 1 -21 3 -29 4 -11 1 -11 4 -1 16 16 20 3
36 -27 33 -21 -2 -26 2 -28 19 -2 21 -47 73 -64 73 -4 0 -17 11 -29 25 -12 14
-31 25 -42 25 -20 0 -20 -6 -20 -765 l0 -765 2485 0 c2152 0 2485 2 2485 14 0
8 4 17 9 20 5 4 7 -3 4 -14 -3 -11 0 -20 6 -20 8 0 11 108 11 385 0 373 -1
386 -21 422 l-21 38 21 -19 21 -19 0 2096 0 2097 -2500 0 -2500 0 0 -469z
m3880 -227 c-10 -131 -22 -264 -24 -295 -4 -36 -1 -60 7 -68 9 -9 7 -11 -8 -8
-11 1 -26 7 -34 11 -8 5 -25 10 -38 12 -20 2 -22 0 -12 -12 12 -14 10 -15 -23
-18 -7 -1 -21 -9 -30 -18 -19 -19 -54 -25 -43 -8 4 6 12 7 18 4 7 -4 9 -3 4 1
-9 11 21 45 42 46 10 0 11 2 4 6 -7 2 -27 -7 -45 -20 -60 -46 -110 -69 -121
-58 -6 6 -8 11 -4 11 16 0 24 4 65 33 39 29 50 46 36 60 -3 3 -19 -10 -36 -29
-17 -19 -35 -34 -42 -34 -6 0 -5 4 3 9 11 7 10 11 -7 22 -16 10 -18 17 -11 38
8 22 7 23 -3 10 -7 -9 -19 -14 -26 -11 -10 3 -8 8 5 19 10 8 12 12 6 8 -7 -3
-13 -1 -13 5 0 9 40 30 58 30 4 0 13 -15 20 -32 10 -27 14 -30 22 -18 8 12 13
13 29 3 15 -10 22 -9 31 2 15 18 45 20 34 3 -5 -7 -2 -9 9 -5 9 3 27 -3 40
-14 14 -10 27 -19 29 -19 2 0 5 19 6 43 4 64 19 196 42 362 11 83 20 156 20
164 0 8 2 12 5 9 3 -2 -4 -112 -15 -244z m-383 146 c14 -11 30 -17 36 -13 6 4
8 0 4 -10 -3 -9 -1 -19 5 -23 6 -4 8 -3 4 4 -3 6 -2 13 3 16 8 5 17 -8 22 -32
1 -4 9 -12 19 -19 9 -6 27 -34 41 -62 15 -32 26 -46 31 -38 5 8 8 4 8 -10 0
-32 1 -36 11 -55 22 -42 16 -134 -6 -98 -3 6 -1 10 5 10 6 0 -5 14 -24 30 -27
24 -40 29 -60 24 -17 -4 -26 -2 -26 6 0 9 -13 10 -47 6 -34 -5 -44 -4 -33 3 8
6 28 11 43 11 16 0 26 4 22 10 -9 14 -72 12 -78 -2 -2 -7 -8 -9 -13 -5 -11 11
15 27 44 27 13 0 21 4 17 10 -3 5 -13 6 -22 3 -11 -4 -14 -3 -9 5 4 8 0 12
-11 12 -31 0 -45 21 -25 36 10 8 12 13 5 14 -14 0 -38 40 -24 40 5 0 32 -16
61 -35 29 -19 54 -35 56 -35 2 0 -7 17 -20 39 -14 21 -23 47 -20 57 3 13 -6
29 -25 48 -46 44 -41 63 6 26z m-737 -51 c0 -5 4 -8 9 -5 4 3 17 -4 27 -15 18
-20 17 -20 -31 1 -61 26 -65 30 -32 30 15 0 27 -5 27 -11z m4 -44 c11 0 21 -6
24 -12 2 -7 -2 -13 -9 -13 -6 0 -18 -8 -26 -17 -8 -10 -12 -12 -8 -5 3 6 4 12
1 12 -2 0 -13 3 -23 7 -16 6 -17 5 -3 -12 14 -17 14 -18 -9 -5 -24 12 -24 13
-5 24 12 6 19 19 17 31 -3 17 -2 18 9 5 7 -8 22 -15 32 -15z m661 15 c3 -5 2
-10 -4 -10 -5 0 -13 5 -16 10 -3 6 -2 10 4 10 5 0 13 -4 16 -10z m1 -96 c0 -1
-17 1 -36 4 -32 5 -33 6 -10 12 14 3 30 1 36 -5 7 -5 11 -11 10 -11z m-669 -1
c10 -10 14 -14 7 -10 -7 4 -14 3 -16 -3 -1 -5 -9 -1 -16 10 -15 25 -1 26 25 3z
m1636 -146 c-9 -87 -20 -157 -25 -157 -13 0 -9 56 12 185 11 66 20 124 20 129
0 5 2 7 5 4 3 -2 -2 -75 -12 -161z m-1596 107 c-3 -3 -12 -4 -19 -1 -8 3 -5 6
6 6 11 1 17 -2 13 -5z m313 -8 c0 -2 -8 -10 -17 -17 -16 -13 -17 -12 -4 4 13
16 21 21 21 13z m613 -58 c4 -10 4 -18 2 -18 -6 0 -35 56 -35 67 0 10 25 -27
33 -49z m-284 38 c-2 -2 -15 -9 -29 -15 -24 -11 -24 -11 -6 3 16 13 49 24 35
12z m1088 -43 c-3 -10 -5 -4 -5 12 0 17 2 24 5 18 2 -7 2 -21 0 -30z m-1197
19 c0 -5 -12 -19 -27 -33 -19 -16 -23 -18 -12 -4 9 11 14 26 12 33 -3 6 2 12
11 12 9 0 16 -4 16 -8z m50 -16 c0 -2 -8 -10 -17 -17 -16 -13 -17 -12 -4 4 13
16 21 21 21 13z m100 -6 c0 -5 -5 -10 -11 -10 -5 0 -7 5 -4 10 3 6 8 10 11 10
2 0 4 -4 4 -10z m124 -18 c3 -5 -1 -9 -9 -9 -8 0 -12 4 -9 9 3 4 7 8 9 8 2 0
6 -4 9 -8z m41 -2 c3 -6 -1 -7 -9 -4 -18 7 -21 14 -7 14 6 0 13 -4 16 -10z
m868 -51 c-6 -6 -7 3 -4 23 4 28 6 29 9 9 2 -13 0 -27 -5 -32z m-960 14 c-7
-2 -13 -12 -13 -21 0 -9 -12 -39 -25 -67 -23 -44 -25 -46 -19 -17 6 33 5 33
-17 21 -23 -12 -23 -12 -6 14 9 15 17 35 17 47 0 22 15 27 24 8 3 -9 8 -8 16
5 6 9 16 17 23 16 9 0 9 -2 0 -6z m1254 -55 c-3 -7 -5 -2 -5 12 0 14 2 19 5
13 2 -7 2 -19 0 -25z m-1106 -26 c-7 -2 -18 1 -23 6 -8 8 -4 9 13 5 13 -4 18
-8 10 -11z m-761 -81 c0 -6 -4 -13 -10 -16 -5 -3 -10 1 -10 9 0 9 5 16 10 16
6 0 10 -4 10 -9z m1415 -177 c-18 -174 -39 -259 -30 -114 6 95 23 235 31 263
14 45 13 -1 -1 -149z m-1245 152 c0 -2 -8 -10 -17 -17 -16 -13 -17 -12 -4 4
13 16 21 21 21 13z m707 -2 c-3 -3 -12 -4 -19 -1 -8 3 -5 6 6 6 11 1 17 -2 13
-5z m-1069 -26 l25 -23 -12 23 c-13 25 -12 26 24 12 18 -7 32 -6 47 3 16 9 22
9 25 -1 3 -6 10 -9 16 -5 17 11 67 12 67 2 0 -5 -4 -9 -10 -9 -5 0 -10 -4 -10
-10 0 -6 9 -6 25 0 16 6 25 6 25 0 0 -16 30 -12 36 5 4 9 19 15 36 15 27 0 29
-2 17 -16 -12 -15 -11 -16 11 -9 14 4 32 14 41 22 14 12 17 12 22 -1 4 -9 1
-18 -5 -22 -7 -4 -8 -3 -4 4 4 7 3 12 -2 12 -15 0 -23 -30 -9 -31 7 -1 23 -1
37 0 14 1 43 3 65 4 22 1 45 6 52 10 6 4 15 2 19 -4 4 -7 3 -9 -4 -5 -6 3 -13
2 -17 -4 -3 -5 -26 -10 -51 -10 -29 0 -43 -4 -39 -10 4 -6 15 -8 26 -5 11 4
19 2 19 -4 0 -6 10 -11 23 -11 31 0 67 -11 67 -20 0 -4 -12 -5 -27 -3 -25 4
-26 3 -10 -7 10 -7 27 -10 38 -7 10 3 22 1 25 -4 3 -5 14 -9 25 -9 13 0 18 -4
13 -12 -7 -11 53 -6 93 9 16 6 16 5 4 -10 -12 -15 -12 -17 3 -11 9 4 16 1 16
-6 0 -7 8 -10 20 -7 11 3 18 1 14 -4 -3 -5 -11 -9 -17 -9 -7 0 -20 -9 -29 -19
-16 -19 -16 -20 3 -26 25 -8 69 2 69 15 0 6 -8 10 -17 10 -15 0 -16 2 -3 10
20 13 33 13 25 0 -7 -12 -3 -12 20 -4 13 5 14 8 3 15 -9 6 -6 9 10 9 13 0 20
-4 17 -10 -3 -5 2 -10 12 -10 10 0 -3 -10 -28 -23 l-47 -22 24 -18 c15 -11 21
-23 17 -33 -5 -13 -1 -15 18 -10 l24 7 -25 -15 c-25 -15 -22 -19 15 -18 17 1
17 0 3 -4 -10 -3 -18 -10 -18 -16 0 -5 7 -8 14 -5 10 4 13 1 9 -8 -3 -8 -9
-13 -13 -10 -5 3 -11 1 -15 -5 -3 -5 -1 -10 5 -10 7 0 9 -7 6 -17 -4 -10 -4
-14 0 -10 10 10 44 -22 44 -42 0 -11 -4 -9 -16 7 -8 12 -21 22 -29 22 -10 0
-5 -15 17 -50 17 -27 32 -50 34 -50 2 0 8 19 15 42 l11 42 14 -33 c8 -18 12
-37 9 -41 -3 -5 -1 -11 3 -14 13 -8 22 102 11 131 -8 21 -7 24 7 19 13 -5 15
-2 10 19 -8 33 2 32 15 -2 8 -22 12 -24 19 -13 15 24 23 -13 17 -78 -4 -31 -6
-60 -7 -64 0 -3 -9 -4 -20 -1 -14 4 -20 0 -20 -11 0 -9 -4 -16 -9 -16 -5 0
-11 -10 -15 -22 -4 -15 -9 -19 -13 -12 -6 8 -14 6 -26 -6 -16 -15 -16 -18 -2
-23 8 -4 15 -2 15 3 0 6 5 10 11 10 6 0 7 -5 2 -12 -4 -7 -10 -31 -13 -53 l-7
-40 -10 35 -11 35 -1 -40 c-1 -31 -4 -37 -12 -25 -9 13 -10 13 -6 -2 3 -9 1
-30 -6 -47 -8 -22 -8 -36 0 -53 6 -13 14 -52 17 -88 3 -36 8 -90 10 -120 15
-152 16 -178 7 -209 -7 -23 -7 -49 0 -80 6 -25 11 -84 10 -131 0 -54 3 -78 8
-65 5 11 6 25 3 30 -3 6 1 5 7 -1 10 -10 10 -17 0 -35 -7 -13 -12 -28 -11 -33
2 -4 -3 -15 -10 -24 -12 -14 -11 -14 9 -2 12 8 21 16 21 19 -1 4 4 24 11 46 9
28 19 41 31 41 12 0 16 -4 11 -11 -5 -5 -6 -23 -4 -38 2 -16 0 -26 -5 -23 -5
3 -8 -5 -7 -16 2 -27 -42 -96 -67 -104 -12 -3 -18 -15 -18 -32 0 -19 3 -23 9
-14 4 8 11 13 15 13 3 -1 17 6 31 15 28 18 109 179 99 196 -4 6 -3 8 3 5 8 -5
18 7 41 56 2 4 -2 7 -7 7 -6 0 -11 -6 -11 -14 0 -19 -13 -27 -28 -17 -9 5 -7
14 8 32 13 14 17 25 10 27 -18 6 -42 -7 -34 -19 4 -8 3 -9 -5 -5 -9 6 -9 11
-1 21 8 10 7 14 -2 18 -7 3 6 8 29 12 24 4 40 12 37 17 -4 6 4 5 16 -2 14 -7
36 -9 59 -5 20 4 30 10 24 12 -7 3 -13 19 -13 37 0 18 -6 38 -12 45 -11 11
-10 12 2 6 8 -4 5 2 -7 14 -29 27 -29 21 4 80 1 2 14 -4 29 -13 14 -10 28 -15
31 -13 7 8 -20 47 -33 47 -10 0 -28 40 -21 47 1 1 22 -10 45 -25 28 -18 40
-32 36 -42 -4 -12 -3 -12 7 -3 9 9 19 8 43 -4 33 -18 56 -24 56 -16 0 13 -22
43 -33 43 -17 0 -67 55 -67 74 0 8 -8 19 -17 24 -20 12 -25 52 -6 52 7 0 13 4
13 9 0 5 9 11 19 14 12 3 19 13 18 25 0 11 -5 19 -9 16 -4 -3 -6 35 -5 83 1
48 3 76 5 61 4 -33 41 -36 43 -3 1 17 2 16 8 -5 4 -16 15 -26 30 -28 12 -2 25
-10 28 -18 6 -17 33 -19 33 -1 0 6 7 -1 15 -16 8 -15 12 -34 9 -41 -3 -8 4
-21 16 -29 18 -12 20 -19 11 -35 -6 -12 -11 -39 -11 -62 0 -23 -5 -50 -10 -61
-8 -13 -7 -19 0 -19 6 0 3 -11 -7 -24 -14 -19 -21 -22 -32 -13 -12 10 -13 9
-4 -8 9 -16 7 -26 -12 -49 -12 -16 -28 -25 -34 -22 -7 5 -8 1 -4 -10 5 -13 3
-15 -7 -9 -9 5 -11 4 -6 -4 5 -7 -11 -31 -39 -60 -35 -36 -52 -48 -68 -44 -20
4 -20 3 -5 -7 16 -10 13 -17 -30 -72 -51 -66 -174 -208 -239 -277 -23 -24 -46
-40 -52 -37 -6 4 -11 2 -11 -3 0 -6 5 -11 11 -11 8 0 8 -4 1 -13 -6 -7 -14
-33 -17 -57 -53 -367 -156 -583 -389 -815 -61 -60 -154 -144 -206 -186 -52
-42 -108 -91 -125 -109 -46 -50 -140 -119 -192 -142 -44 -19 -78 -22 -190 -16
-18 1 -33 5 -33 10 0 5 -5 6 -12 2 -17 -11 -98 -14 -98 -3 0 5 -5 9 -10 9 -49
0 -174 97 -215 168 -11 17 -23 32 -27 32 -4 0 -8 7 -8 15 0 8 -9 29 -20 47
-15 24 -16 34 -7 40 9 6 8 10 -3 18 -20 12 -21 73 -2 65 7 -3 17 -5 21 -5 4 0
18 -10 31 -22 14 -13 25 -18 27 -11 3 8 12 7 31 -2 111 -57 196 -75 297 -65
l50 5 -36 8 c-37 8 -70 31 -154 109 -27 26 -54 48 -58 48 -4 0 -14 14 -21 31
-14 33 -11 69 6 69 5 0 7 4 4 9 -8 12 34 7 62 -8 18 -10 22 -9 22 4 0 8 -10
20 -22 26 -50 22 -72 39 -85 63 -16 30 -7 33 46 15 28 -10 32 -15 27 -38 -5
-26 -5 -26 6 -2 11 20 17 22 52 17 161 -26 202 -24 189 10 -3 8 -8 13 -10 10
-3 -3 -16 7 -30 22 -14 15 -28 26 -31 26 -4 -1 -17 3 -29 7 -63 25 -77 32 -65
36 6 3 12 10 12 18 0 7 24 17 60 24 33 7 74 18 91 25 l30 13 -20 24 c-17 22
-27 24 -103 25 -98 2 -155 22 -187 65 -40 55 -9 133 66 164 25 10 30 18 26 34
-11 43 -70 13 -176 -88 -72 -70 -215 -181 -232 -181 -6 0 -18 -18 -28 -40 -13
-32 -15 -45 -5 -65 6 -14 14 -25 18 -25 6 0 17 -42 59 -233 5 -21 5 -39 0 -43
-5 -3 -7 -10 -3 -15 13 -21 -15 -35 -58 -30 -32 5 -44 11 -47 26 -2 11 -22 38
-45 60 -85 81 -154 205 -115 205 7 0 9 10 5 25 -7 29 8 65 28 65 7 0 23 11 36
24 21 23 21 26 6 41 -9 9 -16 20 -16 25 0 13 -68 80 -82 80 -16 0 -78 69 -78
87 0 7 -4 13 -8 13 -11 0 -32 46 -32 70 0 11 -4 20 -9 20 -8 0 -19 35 -28 90
-8 47 -8 340 0 340 4 0 7 16 7 36 0 30 3 35 18 29 9 -4 33 -9 52 -12 34 -5 60
-16 185 -82 72 -37 122 -55 153 -53 14 1 22 -4 22 -13 0 -10 10 -15 33 -14 17
1 24 3 15 6 -30 8 -20 18 18 20 20 1 42 7 48 14 8 9 8 10 -1 5 -7 -4 -13 -3
-13 3 0 11 39 25 47 17 4 -3 17 1 30 9 13 9 28 13 32 10 5 -3 11 0 13 6 2 5
11 7 22 3 14 -5 15 -9 4 -16 -13 -9 -1 -7 52 8 22 6 28 -11 8 -19 -19 -8 13
-28 34 -21 10 3 21 -3 27 -13 9 -15 12 -16 20 -4 10 15 31 7 31 -13 0 -19 40
-52 48 -40 4 6 15 13 25 17 9 3 17 13 17 22 0 8 4 15 8 15 20 0 47 85 45 142
-1 52 -5 63 -32 89 -17 16 -31 34 -31 39 0 6 -5 10 -11 10 -6 0 -23 12 -38 28
-15 15 -50 33 -77 41 -27 7 -81 29 -121 47 -39 19 -78 34 -85 34 -8 0 -31 9
-53 20 -22 11 -54 20 -71 20 -18 0 -39 7 -47 15 -9 8 -41 18 -72 21 -34 4 -51
10 -44 15 22 13 -41 23 -75 11 -79 -27 -77 -27 -73 10 10 74 20 118 28 118 5
0 9 7 9 15 0 8 5 15 10 15 6 0 10 7 10 16 0 8 -4 12 -10 9 -5 -3 -10 1 -10 9
0 9 4 16 10 16 5 0 9 3 9 8 -4 24 3 33 20 27 24 -7 36 12 46 72 6 41 50 93 76
93 19 0 40 28 28 36 -8 5 -6 10 5 16 9 5 14 13 11 19 -4 5 -2 9 3 9 6 0 9 8 8
17 0 10 5 18 13 18 8 0 16 13 18 30 2 17 11 35 19 42 13 10 20 26 23 56 1 4 8
7 16 7 8 0 15 7 15 15 0 8 9 19 21 25 11 7 18 17 16 25 -4 8 9 17 39 25 24 7
44 17 44 21 0 5 10 9 21 9 18 0 19 3 9 15 -10 12 -7 15 16 21 15 4 39 13 53
20 14 8 45 14 69 14 23 0 42 4 42 9 0 5 -9 7 -20 4 -24 -6 -26 3 -5 23 9 10
15 11 15 4 0 -7 8 -9 22 -5 17 6 20 4 15 -9 -4 -9 -2 -16 2 -16 5 0 11 7 15
15 3 8 15 15 26 15 12 0 32 12 46 27 13 14 27 23 30 20 10 -10 44 12 44 28 0
8 7 15 16 15 8 0 12 5 8 11 -4 7 1 7 16 -1 20 -11 22 -10 17 4 -9 22 2 20 31
-6z m467 13 c3 -5 2 -12 -3 -15 -5 -3 -9 1 -9 9 0 17 3 19 12 6z m540 -10 c-3
-6 -11 -11 -16 -11 -5 0 -4 6 3 14 14 16 24 13 13 -3z m-498 3 c-3 -3 -12 -4
-19 -1 -8 3 -5 6 6 6 11 1 17 -2 13 -5z m-626 -14 c5 0 9 -4 9 -10 0 -16 -37
-11 -44 6 -5 12 -2 15 10 10 8 -3 20 -6 25 -6z m-1451 -10 c0 -5 -4 -10 -10
-10 -5 0 -10 5 -10 10 0 6 5 10 10 10 6 0 10 -4 10 -10z m2586 -172 c5 4 6 3
2 -2 -4 -5 -3 -15 3 -23 6 -7 8 -13 3 -13 -5 0 -18 13 -29 28 -12 17 -13 22
-4 15 9 -7 20 -9 25 -5z m70 -158 c8 0 15 8 15 18 1 9 4 4 8 -13 5 -20 2 -37
-9 -52 l-15 -21 -12 23 c-14 26 -23 91 -14 101 3 3 7 -8 9 -25 2 -19 9 -31 18
-31z m-72 34 c3 -8 2 -12 -4 -9 -6 3 -10 10 -10 16 0 14 7 11 14 -7z m586 -28
c0 -11 -19 -15 -25 -6 -3 5 1 10 9 10 9 0 16 -2 16 -4z m-703 -32 c-3 -3 -12
-4 -19 -1 -8 3 -5 6 6 6 11 1 17 -2 13 -5z m-3572 -514 c-3 -5 -12 -10 -18
-10 -7 0 -6 4 3 10 19 12 23 12 15 0z m3920 -170 c3 -6 -1 -7 -9 -4 -18 7 -21
14 -7 14 6 0 13 -4 16 -10z m65 -41 l25 -20 -32 16 c-18 8 -33 18 -33 20 0 10
16 4 40 -16z m-1940 -101 c23 3 30 0 30 -12 0 -13 -6 -15 -27 -10 -58 15 -78
22 -60 23 9 1 18 7 18 14 1 6 3 5 6 -4 3 -11 12 -14 33 -11z m-85 -8 c-3 -5
-10 -10 -16 -10 -5 0 -9 5 -9 10 0 6 7 10 16 10 8 0 12 -4 9 -10z m1755 -90
c-8 -5 -19 -10 -25 -10 -5 0 -3 5 5 10 8 5 20 10 25 10 6 0 3 -5 -5 -10z
m-1570 -20 c13 -8 13 -10 0 -14 -22 -8 -53 -1 -58 12 -4 14 37 16 58 2z m1527
4 c-3 -3 -12 -4 -19 -1 -8 3 -5 6 6 6 11 1 17 -2 13 -5z m-1430 -53 c14 -13
23 -24 21 -26 -2 -1 -26 -6 -54 -10 l-52 -7 15 46 c17 50 17 50 70 -3z m-287
-4 c0 -15 -3 -16 -20 -7 -17 9 -18 14 -8 30 14 21 28 10 28 -23z m1715 -27 c3
-5 1 -10 -4 -10 -6 0 -11 5 -11 10 0 6 2 10 4 10 3 0 8 -4 11 -10z m-2688 -26
c7 -18 -16 -66 -29 -58 -4 3 -11 -2 -14 -10 -3 -9 -29 -33 -58 -53 -28 -21
-81 -61 -117 -89 -64 -51 -76 -54 -107 -28 -16 12 50 72 223 201 75 56 92 62
102 37z m-7 -119 c-5 -14 -16 -36 -25 -49 -8 -13 -13 -32 -9 -42 4 -14 3 -15
-4 -6 -7 11 -10 11 -15 -2 -3 -8 -15 -14 -26 -13 -16 1 -19 6 -15 21 5 16 4
17 -9 5 -8 -8 -13 -17 -11 -21 5 -7 -65 -32 -72 -25 -4 4 113 102 145 122 11
6 13 4 7 -10 -5 -15 -4 -16 9 -5 9 7 13 15 10 18 -4 5 13 32 21 32 2 0 -1 -11
-6 -25z m-130 -169 c0 -3 -4 -8 -10 -11 -5 -3 -10 -1 -10 4 0 6 5 11 10 11 6
0 10 -2 10 -4z m2913 -3 c-7 -2 -19 -2 -25 0 -7 3 -2 5 12 5 14 0 19 -2 13 -5z
m-3030 -28 c-3 -9 -8 -14 -10 -11 -3 3 -2 9 2 15 9 16 15 13 8 -4z m84 -19
c-2 -6 0 -19 5 -29 8 -15 5 -17 -24 -15 -18 1 -55 12 -83 25 l-50 23 38 -6
c21 -3 46 -8 55 -10 13 -4 13 -2 -3 11 -20 17 -20 17 2 11 12 -4 24 -2 27 3 9
13 38 2 33 -13z m43 -52 c0 -8 -5 -12 -10 -9 -6 4 -8 11 -5 16 9 14 15 11 15
-7z m3049 -586 c1 6 7 12 14 12 16 0 53 -38 45 -45 -7 -8 -38 5 -38 16 0 4 -6
6 -12 4 -20 -7 -42 11 -33 26 6 9 10 8 16 -7 4 -10 8 -13 8 -6z m-3799 -138
c0 -5 -7 -10 -16 -10 -8 0 -12 5 -9 10 3 6 10 10 16 10 5 0 9 -4 9 -10z m20
-34 c0 -11 -19 -15 -25 -6 -3 5 1 10 9 10 9 0 16 -2 16 -4z m3743 -56 c4 0 5
4 2 10 -4 7 2 7 18 1 14 -6 29 -7 33 -3 5 4 -4 -8 -20 -26 -17 -17 -35 -32
-40 -32 -6 0 -4 5 4 10 12 8 11 10 -7 10 -18 0 -23 6 -23 27 0 21 3 24 12 15
7 -7 16 -12 21 -12z m-1943 0 c0 -5 -5 -10 -11 -10 -5 0 -7 5 -4 10 3 6 8 10
11 10 2 0 4 -4 4 -10z m2100 -60 c7 -17 14 -41 15 -53 2 -29 -23 -79 -35 -72
-6 4 -10 0 -10 -8 0 -8 -8 -18 -17 -21 -18 -7 -35 12 -28 32 3 8 5 19 5 25 0
7 4 6 10 -3 5 -8 10 -10 10 -4 0 5 -5 15 -10 20 -8 8 -7 24 3 53 8 23 12 51 9
63 -4 18 -2 19 15 10 11 -6 26 -25 33 -42z m75 18 c17 -10 25 -18 19 -18 -15
0 -72 29 -79 41 -8 11 21 1 60 -23z m-281 -13 c-10 -7 -14 -17 -10 -24 6 -9
12 -9 24 1 15 12 16 11 4 -4 -13 -16 -41 -15 -43 3 -1 5 -2 15 -3 22 -4 20 3
25 24 20 19 -5 19 -6 4 -18z m795 -191 c14 -12 -19 -1 -35 12 -18 14 -18 14 6
3 14 -6 27 -13 29 -15z m112 -56 c11 -13 29 -41 40 -63 19 -37 21 -25 3 20 -7
20 -7 20 15 0 32 -28 37 -40 66 -151 34 -129 45 -214 38 -277 -6 -45 -8 -48
-20 -32 -7 11 -13 32 -13 48 0 20 -10 37 -30 55 -32 28 -39 45 -15 36 8 -4 15
-2 15 4 0 5 -7 13 -16 16 -11 4 -15 14 -12 31 3 13 2 26 -3 27 -4 2 -10 24
-13 50 -3 26 -10 57 -15 70 -7 19 -32 99 -36 118 0 3 -9 20 -18 38 -20 37 -14
42 14 10z m-781 -26 c0 -10 -8 -18 -19 -19 -18 -1 -19 1 -9 22 12 26 28 24 28
-3z m-10 -52 c0 -11 -2 -20 -4 -20 -2 0 -6 9 -9 20 -3 11 -1 20 4 20 5 0 9 -9
9 -20z m-1582 -67 c-10 -2 -18 -9 -18 -14 0 -6 -4 -7 -10 -4 -19 12 -10 25 18
24 16 -1 20 -3 10 -6z m1289 -209 c3 -8 -2 -23 -11 -32 -16 -16 -17 -16 -10 3
7 20 7 20 -17 0 -13 -11 -19 -13 -12 -6 6 7 9 20 6 29 -4 10 -2 13 5 8 7 -4
12 -2 12 3 0 17 20 13 27 -5z m-2 -95 c-9 -17 -19 -29 -22 -26 -5 5 25 57 33
57 3 0 -3 -14 -11 -31z m1152 -21 c-3 -7 -5 -2 -5 12 0 14 2 19 5 13 2 -7 2
-19 0 -25z m13 -103 c5 3 8 -8 8 -25 -1 -16 -3 -30 -5 -30 -11 0 -29 65 -24
88 6 26 6 26 9 -6 2 -18 7 -30 12 -27z m-438 -147 c-9 -9 -12 -7 -12 12 0 19
3 21 12 12 9 -9 9 -15 0 -24z m-2655 -13 c0 -8 -4 -15 -9 -15 -4 0 -8 7 -8 15
0 8 4 15 8 15 5 0 9 -7 9 -15z m7 -41 c20 -8 11 -24 -13 -24 -10 0 -18 7 -18
15 0 16 7 18 31 9z m2619 -49 c-7 -21 -12 -19 -10 4 0 11 5 18 9 15 4 -3 5
-11 1 -19z m-2633 -5 c-9 -17 -30 -28 -30 -16 0 16 15 36 26 36 12 0 12 -4 4
-20z m30 -29 c0 -15 -17 -22 -36 -14 -16 6 -16 7 2 14 27 11 34 10 34 0z
m2597 -23 c-3 -8 -6 -5 -6 6 -1 11 2 17 5 13 3 -3 4 -12 1 -19z m-2602 -29
c-4 -5 -15 -9 -25 -9 -16 0 -19 9 -11 38 1 1 10 -2 21 -8 11 -6 18 -15 15 -21z
m2597 -11 c-7 -7 -12 -8 -12 -2 0 14 12 26 19 19 2 -3 -1 -11 -7 -17z"/>
<path d="M3620 3965 c-7 -9 -11 -18 -8 -20 3 -3 11 1 18 10 7 9 11 18 8 20 -3
3 -11 -1 -18 -10z"/>
<path d="M3640 4205 c7 -9 15 -13 17 -11 7 7 -7 26 -19 26 -6 0 -6 -6 2 -15z"/>
<path d="M3650 4176 c0 -2 7 -7 16 -10 8 -3 12 -2 9 4 -6 10 -25 14 -25 6z"/>
<path d="M3170 3820 c8 -5 22 -9 30 -9 10 0 8 3 -5 9 -27 12 -43 12 -25 0z"/>
<path d="M3670 3375 c0 -8 4 -15 10 -15 5 0 7 7 4 15 -4 8 -8 15 -10 15 -2 0
-4 -7 -4 -15z"/>
<path d="M4145 2750 c-10 -11 -16 -22 -14 -24 2 -2 12 7 22 20 22 29 17 32 -8
4z"/>
<path d="M3148 2693 c-27 -2 -48 -9 -48 -15 0 -5 -8 -7 -17 -4 -15 6 -15 5 1
-13 15 -16 27 -19 69 -15 29 3 62 6 74 6 13 0 21 3 18 8 -2 4 17 5 44 2 39 -3
48 -1 48 12 0 11 -10 16 -31 17 -17 0 -49 1 -71 3 -22 1 -61 1 -87 -1z"/>
<path d="M3139 2563 c-72 -11 -185 -110 -151 -132 7 -4 12 -13 10 -18 -2 -6
17 -29 41 -52 40 -37 49 -41 95 -41 l51 1 -47 27 c-43 24 -66 50 -35 39 6 -2
20 0 29 4 9 5 19 5 22 0 6 -8 48 -7 63 2 4 3 30 8 58 12 56 7 72 15 31 15 -26
0 -27 1 -12 22 9 12 16 32 16 45 0 36 18 37 81 4 72 -37 79 -38 73 -6 -3 19
-1 23 11 19 27 -11 16 5 -15 21 -66 34 -225 53 -321 38z m149 -42 c11 -7 11
-9 -1 -14 -20 -8 -58 3 -51 14 7 11 35 11 52 0z m-248 -51 c0 -5 -10 -10 -22
-10 -19 0 -20 2 -8 10 19 13 30 13 30 0z"/>
<path d="M3673 2323 c-7 -2 -13 -9 -13 -14 0 -14 26 -10 40 6 10 12 10 15 -1
14 -8 0 -20 -3 -26 -6z"/>
<path d="M3140 1753 c0 -5 9 -16 20 -26 25 -21 25 -38 3 -58 -10 -9 -25 -25
-33 -35 -9 -11 -29 -30 -45 -42 -17 -13 -22 -21 -13 -18 9 3 28 -4 41 -15 14
-10 29 -19 34 -19 5 0 28 17 53 38 30 27 41 44 37 55 -4 11 -1 17 8 17 8 0 15
3 15 8 -1 15 -120 111 -120 95z"/>
<path d="M383 4033 c9 -2 23 -2 30 0 6 3 -1 5 -18 5 -16 0 -22 -2 -12 -5z"/>
<path d="M458 4033 c7 -3 16 -2 19 1 4 3 -2 6 -13 5 -11 0 -14 -3 -6 -6z"/>
<path d="M330 1280 c0 -5 5 -10 10 -10 6 0 10 5 10 10 0 6 -4 10 -10 10 -5 0
-10 -4 -10 -10z"/>
</g>
</svg>
